<mxfile host="app.diagrams.net" modified="2023-04-19T07:17:58.307Z" agent="Mozilla/5.0 (Windows NT 10.0; Win64; x64) AppleWebKit/537.36 (KHTML, like Gecko) Chrome/112.0.0.0 Safari/537.36 Edg/112.0.1722.48" etag="Vq6YYBRJI8NPvDlxX9Ng" version="21.1.9" type="device">
  <diagram name="Page-1" id="6YdfSJhMgzzmSyWNShbw">
    <mxGraphModel dx="1244" dy="529" grid="1" gridSize="10" guides="1" tooltips="1" connect="1" arrows="1" fold="1" page="1" pageScale="1" pageWidth="850" pageHeight="1100" math="0" shadow="0">
      <root>
        <mxCell id="0" />
        <mxCell id="1" parent="0" />
        <mxCell id="KS064n28mlLJwBIdan_k-1" value="" style="whiteSpace=wrap;html=1;aspect=fixed;" vertex="1" parent="1">
          <mxGeometry x="310" y="50" width="830" height="830" as="geometry" />
        </mxCell>
        <mxCell id="KS064n28mlLJwBIdan_k-2" value="Nelayan" style="shape=umlActor;verticalLabelPosition=bottom;verticalAlign=top;html=1;outlineConnect=0;" vertex="1" parent="1">
          <mxGeometry x="190" y="200" width="30" height="80" as="geometry" />
        </mxCell>
        <mxCell id="KS064n28mlLJwBIdan_k-10" value="&lt;font style=&quot;font-size: 24px;&quot;&gt;Sistem Informasi Manajemen Data Perikanan&lt;/font&gt;" style="text;html=1;strokeColor=none;fillColor=none;align=center;verticalAlign=middle;whiteSpace=wrap;rounded=0;" vertex="1" parent="1">
          <mxGeometry x="475" y="50" width="500" height="80" as="geometry" />
        </mxCell>
        <mxCell id="KS064n28mlLJwBIdan_k-11" value="Admin" style="shape=umlActor;verticalLabelPosition=bottom;verticalAlign=top;html=1;outlineConnect=0;" vertex="1" parent="1">
          <mxGeometry x="1260" y="320" width="30" height="80" as="geometry" />
        </mxCell>
        <mxCell id="KS064n28mlLJwBIdan_k-12" value="Admin" style="shape=umlActor;verticalLabelPosition=bottom;verticalAlign=top;html=1;outlineConnect=0;" vertex="1" parent="1">
          <mxGeometry x="190" y="460" width="30" height="80" as="geometry" />
        </mxCell>
      </root>
    </mxGraphModel>
  </diagram>
</mxfile>
